<?xml version="1.0" encoding="utf-8"?>
<!-- Generator: Adobe Illustrator 13.0.0, SVG Export Plug-In  -->
<!DOCTYPE svg PUBLIC "-//W3C//DTD SVG 1.1//EN" "http://www.w3.org/Graphics/SVG/1.1/DTD/svg11.dtd" [
	<!ENTITY ns_flows "http://ns.adobe.com/Flows/1.0/">
]>
<svg version="1.1"
	 xmlns="http://www.w3.org/2000/svg" xmlns:xlink="http://www.w3.org/1999/xlink" xmlns:a="http://ns.adobe.com/AdobeSVGViewerExtensions/3.0/"
	 x="0px" y="0px" width="576px" height="576px" viewBox="-7.896 -52.907 576 576" enable-background="new -7.896 -52.907 576 576"
	 xml:space="preserve">
<defs>
</defs>
<line fill="#3850A3" stroke="#384BA0" stroke-linecap="round" stroke-linejoin="round" x1="5.206" y1="443.895" x2="458.836" y2="443.895"/>
<circle fill="#FFFFFF" stroke="#231F20" stroke-width="0.5" stroke-linecap="round" stroke-linejoin="round" stroke-dasharray="12,12" cx="246.774" cy="241.195" r="201.027"/>
<circle fill="#FF0000" stroke="#FF0000" stroke-width="0.1764" stroke-linecap="round" stroke-linejoin="round" cx="247.472" cy="240.497" r="191.308"/>
<circle fill="#FFFFFF" stroke="#FF0000" stroke-width="0.1764" stroke-linecap="round" stroke-linejoin="round" cx="247.472" cy="240.497" r="134.37"/>
<path d="M140.328,260.279l11.186-1.491c1.283,6.338,3.468,10.905,6.556,13.7c3.084,2.796,6.843,4.195,11.277,4.195
	c5.259,0,9.702-1.822,13.326-5.469c3.624-3.646,5.438-8.16,5.438-13.544c0-5.135-1.678-9.372-5.033-12.707
	c-3.356-3.333-7.621-5.001-12.8-5.001c-2.112,0-4.743,0.416-7.89,1.242l1.242-9.817c0.746,0.083,1.347,0.124,1.803,0.124
	c4.763,0,9.051-1.242,12.862-3.728c3.811-2.485,5.717-6.316,5.717-11.496c0-4.101-1.389-7.496-4.164-10.19
	c-2.775-2.691-6.358-4.038-10.75-4.038c-4.349,0-7.975,1.367-10.875,4.101s-4.764,6.834-5.592,12.302l-11.185-1.988
	c1.368-7.497,4.473-13.308,9.321-17.429c4.845-4.122,10.873-6.183,18.081-6.183c4.972,0,9.548,1.067,13.732,3.2
	c4.183,2.134,7.384,5.045,9.6,8.731c2.216,3.686,3.325,7.601,3.325,11.743c0,3.937-1.057,7.518-3.17,10.749
	c-2.111,3.231-5.239,5.8-9.383,7.705c5.385,1.242,9.569,3.823,12.553,7.736c2.981,3.912,4.473,8.813,4.473,14.695
	c0,7.954-2.899,14.693-8.698,20.225c-5.8,5.531-13.133,8.296-21.997,8.296c-7.994,0-14.633-2.381-19.913-7.146
	C144.086,274.034,141.074,267.859,140.328,260.279z"/>
<path d="M228.443,265.492l9.323-0.79c0.69,4.539,2.294,7.952,4.81,10.235c2.516,2.287,5.551,3.431,9.103,3.431
	c4.274,0,7.894-1.611,10.855-4.835c2.959-3.224,4.438-7.501,4.438-12.828c0-5.065-1.422-9.062-4.268-11.99
	c-2.844-2.926-6.569-4.389-11.174-4.389c-2.863,0-5.444,0.648-7.746,1.948c-2.303,1.3-4.112,2.984-5.427,5.057l-8.337-1.085
	l7.006-37.152h35.966v8.485h-28.863l-3.897,19.439c4.343-3.026,8.898-4.54,13.666-4.54c6.316,0,11.645,2.189,15.986,6.563
	c4.343,4.375,6.513,9.997,6.513,16.874c0,6.546-1.908,12.201-5.723,16.971c-4.639,5.856-10.97,8.783-18.994,8.783
	c-6.581,0-11.949-1.844-16.109-5.526C231.411,276.461,229.035,271.576,228.443,265.492z"/>
<path d="M287.106,284.435v-52.394h7.941v7.35c1.646-2.565,3.833-4.629,6.563-6.191c2.729-1.563,5.837-2.344,9.325-2.344
	c3.88,0,7.063,0.807,9.547,2.418c2.484,1.612,4.234,3.865,5.253,6.76c4.145-6.119,9.539-9.178,16.184-9.178
	c5.196,0,9.193,1.439,11.987,4.317c2.797,2.877,4.195,7.311,4.195,13.296v35.968h-8.832V251.43c0-3.554-0.287-6.11-0.86-7.672
	c-0.577-1.561-1.622-2.819-3.134-3.774c-1.513-0.954-3.29-1.431-5.329-1.431c-3.682,0-6.743,1.227-9.178,3.678
	c-2.434,2.451-3.649,6.371-3.649,11.766v30.441h-8.882v-34.043c0-3.946-0.724-6.907-2.171-8.881
	c-1.445-1.974-3.815-2.959-7.104-2.959c-2.5,0-4.812,0.656-6.933,1.974c-2.118,1.316-3.657,3.24-4.61,5.772
	c-0.956,2.533-1.431,6.182-1.431,10.952v27.187h-8.882V284.435z"/>
<path d="M209.789,285.561v-12.737h12.738v12.737c0,4.683-0.829,8.462-2.486,11.341c-1.657,2.88-4.286,5.104-7.89,6.681l-3.106-4.784
	c2.36-1.037,4.1-2.559,5.218-4.567c1.119-2.01,1.741-4.899,1.865-8.67H209.789z"/>
<path d="M232.603,108.008h29.741l-14.871,21.239L232.603,108.008z M247.472,351.746l14.871,21.239h-14.871h-14.87L247.472,351.746z"
	/>
<line fill="#3850A3" stroke="#384BA0" stroke-linecap="round" stroke-linejoin="round" x1="449.208" y1="452.069" x2="449.208" y2="15.337"/>
<line fill="#3850A3" stroke="#384BA0" stroke-linecap="round" stroke-linejoin="round" x1="20.917" y1="39.607" x2="458.836" y2="39.607"/>
<ellipse fill="#343894" stroke="#005FAC" cx="449.581" cy="40.473" rx="2.832" ry="2.517"/>
<path fill="#282D74" d="M212.972,22.592v-1.81l2.313-2.246c5.564-5.296,8.078-8.111,8.112-11.396c0-2.213-1.073-4.257-4.325-4.257
	c-1.978,0-3.619,1.005-4.626,1.843l-0.938-2.078c1.509-1.274,3.654-2.212,6.168-2.212c4.691,0,6.671,3.217,6.671,6.334
	c0,4.023-2.918,7.274-7.51,11.699l-1.743,1.609v0.067h9.788v2.447H212.972z"/>
<path fill="#282D74" d="M229.227,26.715c0.704-1.978,1.607-5.564,1.978-8.011l3.284-0.335c-0.771,2.849-2.246,6.57-3.185,8.146
	L229.227,26.715z"/>
<path fill="#282D74" d="M250.107,3.285h-8.312l-0.838,5.598c0.503-0.067,0.972-0.134,1.776-0.134c1.677,0,3.352,0.369,4.693,1.173
	c1.708,0.972,3.117,2.849,3.117,5.597c0,4.258-3.386,7.441-8.111,7.441c-2.38,0-4.392-0.67-5.431-1.341l0.737-2.245
	c0.905,0.536,2.682,1.207,4.659,1.207c2.782,0,5.162-1.81,5.162-4.727c-0.033-2.815-1.911-4.826-6.268-4.826
	c-1.239,0-2.211,0.134-3.016,0.234l1.407-10.458h10.425V3.285z"/>
<path fill="#282D74" d="M265.355,0v9.453h10.927V0h2.949v22.592h-2.949V12h-10.927v10.592h-2.916V0H265.355z"/>
<path fill="#282D74" d="M295.755,21.988c-0.77,0.402-2.48,0.972-4.658,0.972c-4.896,0-8.079-3.352-8.079-8.313
	c0-4.994,3.42-8.614,8.715-8.614c1.744,0,3.284,0.436,4.09,0.838l-0.67,2.279c-0.705-0.402-1.811-0.771-3.42-0.771
	c-3.72,0-5.731,2.749-5.731,6.134c0,3.754,2.414,6.067,5.632,6.067c1.675,0,2.783-0.436,3.62-0.804L295.755,21.988z"/>
<line fill="#3850A3" stroke="#384BA0" stroke-linecap="round" stroke-linejoin="round" x1="43.186" y1="459.4" x2="43.186" y2="16.384"/>
<ellipse fill="#343894" stroke="#005FAC" cx="43.186" cy="39.002" rx="2.833" ry="2.518"/>
<ellipse fill="#343894" stroke="#005FAC" cx="43.186" cy="442.866" rx="2.833" ry="2.518"/>
<path fill="#282D74" d="M22.592,261.977h-1.811l-2.245-2.313c-5.296-5.564-8.111-8.077-11.396-8.112
	c-2.212,0-4.257,1.074-4.257,4.325c0,1.978,1.005,3.619,1.843,4.625l-2.078,0.938c-1.274-1.507-2.213-3.652-2.213-6.167
	c0-4.692,3.219-6.671,6.336-6.671c4.022,0,7.273,2.917,11.698,7.509l1.609,1.743h0.067v-9.789h2.447V261.977z"/>
<path fill="#282D74" d="M26.714,245.722c-1.978-0.704-5.563-1.608-8.011-1.978l-0.335-3.284c2.849,0.771,6.57,2.244,8.146,3.185
	L26.714,245.722z"/>
<path fill="#282D74" d="M3.285,224.84v8.312l5.598,0.839c-0.067-0.502-0.134-0.972-0.134-1.777c0-1.675,0.369-3.352,1.173-4.692
	c0.972-1.709,2.85-3.118,5.598-3.118c4.257,0,7.44,3.386,7.44,8.113c0,2.379-0.67,4.391-1.34,5.43l-2.246-0.738
	c0.536-0.904,1.206-2.68,1.206-4.659c0-2.782-1.81-5.162-4.726-5.162c-2.815,0.033-4.826,1.91-4.826,6.268
	c0,1.241,0.134,2.213,0.234,3.018l-10.458-1.408V224.84H3.285z"/>
<path fill="#282D74" d="M0,209.592h9.452v-10.927H0v-2.951h22.592v2.951H12v10.927h10.592v2.916H0V209.592z"/>
<path fill="#282D74" d="M21.988,179.192c0.402,0.771,0.972,2.48,0.972,4.659c0,4.895-3.351,8.079-8.313,8.079
	c-4.994,0-8.614-3.419-8.614-8.715c0-1.743,0.436-3.285,0.837-4.089l2.28,0.67c-0.402,0.704-0.771,1.811-0.771,3.419
	c0,3.721,2.749,5.731,6.134,5.731c3.753,0,6.066-2.413,6.066-5.631c0-1.676-0.435-2.782-0.804-3.62L21.988,179.192z"/>
<line fill="#3850A3" stroke="#384BA0" stroke-linecap="round" stroke-linejoin="round" x1="420.939" y1="235.463" x2="534.106" y2="235.463"/>
<ellipse fill="#343894" stroke="#005FAC" cx="438.57" cy="235.559" rx="2.833" ry="2.519"/>
<ellipse fill="#343894" stroke="#005FAC" cx="447.472" cy="235.734" rx="2.833" ry="2.518"/>
<path fill="#282D74" d="M473.237,218.146c0,7.408-2.75,11.497-7.576,11.497c-4.256,0-7.14-3.988-7.206-11.195
	c0-7.307,3.15-11.329,7.574-11.329C470.623,207.118,473.237,211.207,473.237,218.146z M461.405,218.48
	c0,5.665,1.742,8.882,4.423,8.882c3.018,0,4.459-3.52,4.459-9.083c0-5.364-1.375-8.883-4.425-8.883
	C463.281,209.397,461.405,212.548,461.405,218.48z"/>
<path fill="#282D74" d="M475.011,233.396c0.705-1.978,1.608-5.564,1.978-8.011l3.282-0.335c-0.77,2.849-2.243,6.57-3.184,8.146
	L475.011,233.396z"/>
<path fill="#282D74" d="M497.368,218.146c0,7.408-2.75,11.497-7.576,11.497c-4.257,0-7.14-3.988-7.207-11.195
	c0-7.307,3.151-11.329,7.574-11.329C494.751,207.118,497.368,211.207,497.368,218.146z M485.535,218.48
	c0,5.665,1.742,8.882,4.426,8.882c3.015,0,4.457-3.52,4.457-9.083c0-5.364-1.375-8.883-4.426-8.883
	C487.411,209.397,485.535,212.548,485.535,218.48z"/>
<path fill="#282D74" d="M512.513,209.564c-0.603-0.033-1.373,0-2.211,0.135c-4.626,0.771-7.071,4.155-7.576,7.742h0.102
	c1.039-1.375,2.849-2.513,5.263-2.513c3.854,0,6.568,2.782,6.568,7.039c0,3.989-2.715,7.675-7.238,7.675
	c-4.659,0-7.71-3.62-7.71-9.284c0-4.291,1.542-7.676,3.688-9.821c1.809-1.777,4.223-2.883,6.971-3.219
	c0.872-0.133,1.61-0.167,2.145-0.167V209.564z M507.454,227.363c2.515,0,4.223-2.111,4.223-5.228c0-3.118-1.777-4.994-4.491-4.994
	c-1.776,0-3.42,1.105-4.224,2.681c-0.2,0.336-0.334,0.771-0.334,1.307c0.067,3.586,1.709,6.234,4.793,6.234H507.454z"/>
<path fill="#282D74" d="M528.333,206.681v9.454h10.927v-9.454h2.95v22.593h-2.95v-10.592h-10.927v10.592h-2.915v-22.593H528.333z"/>
<path fill="#282D74" d="M558.733,228.67c-0.771,0.403-2.48,0.972-4.659,0.972c-4.895,0-8.078-3.352-8.078-8.312
	c0-4.994,3.418-8.614,8.715-8.614c1.744,0,3.284,0.436,4.09,0.837l-0.67,2.279c-0.705-0.402-1.812-0.771-3.42-0.771
	c-3.722,0-5.731,2.748-5.731,6.135c0,3.753,2.412,6.066,5.632,6.066c1.675,0,2.781-0.436,3.619-0.804L558.733,228.67z"/>
<line fill="#3850A3" stroke="#384BA0" stroke-linecap="round" stroke-linejoin="round" x1="354.064" y1="188.501" x2="527.927" y2="107.428"/>
<ellipse transform="matrix(0.9064 -0.4224 0.4224 0.9064 -42.4198 172.4896)" fill="#343894" stroke="#005FAC" cx="368.004" cy="181.963" rx="2.833" ry="2.518"/>
<ellipse transform="matrix(0.9063 -0.4226 0.4226 0.9063 -27.5265 192.2921)" fill="#343894" stroke="#005FAC" cx="419.904" cy="158.225" rx="2.832" ry="2.517"/>
<path fill="#282D74" d="M438.935,129.818c3.13,6.714,2.367,11.582-2.008,13.622c-3.857,1.799-8.156-0.598-11.263-7.101
	c-3.088-6.623-1.934-11.6,2.078-13.47C431.905,120.928,436.001,123.53,438.935,129.818z M428.351,135.123
	c2.396,5.134,5.335,7.313,7.766,6.18c2.732-1.274,2.553-5.074,0.2-10.116c-2.266-4.861-4.999-7.47-7.764-6.181
	C426.215,126.097,425.846,129.745,428.351,135.123z"/>
<path fill="#282D74" d="M446.988,142.891c-0.197-2.09-0.893-5.722-1.592-8.096l2.835-1.692c0.505,2.907,0.74,6.903,0.555,8.728
	L446.988,142.891z"/>
<path fill="#282D74" d="M452.383,135.826l-0.765-1.64l1.148-3.014c2.804-7.151,3.892-10.765,2.535-13.756
	c-0.936-2.006-2.774-3.405-5.721-2.031c-1.792,0.836-2.854,2.441-3.412,3.625l-1.728-1.487c0.827-1.792,2.375-3.549,4.653-4.611
	c4.255-1.984,7.405,0.097,8.723,2.923c1.7,3.646,0.431,7.824-1.861,13.775l-0.899,2.194l0.029,0.062l8.869-4.137l1.036,2.218
	L452.383,135.826z"/>
<path fill="#282D74" d="M471.593,105.565l-7.533,3.513l1.604,5.428c0.429-0.274,0.826-0.533,1.554-0.873
	c1.52-0.708,3.192-1.083,4.75-0.92c1.961,0.159,4.027,1.264,5.191,3.755c1.798,3.858,0.076,8.175-4.208,10.172
	c-2.156,1.006-4.263,1.249-5.487,1.08l-0.282-2.347c1.047,0.104,2.941-0.039,4.731-0.875c2.523-1.175,3.915-3.822,2.684-6.464
	c-1.219-2.538-3.771-3.567-7.721-1.726c-1.124,0.523-1.948,1.057-2.635,1.487l-3.146-10.073l9.45-4.406L471.593,105.565z"/>
<path fill="#282D74" d="M484.025,96.145l3.993,8.566l9.904-4.618l-3.995-8.567l2.674-1.246l9.548,20.475l-2.674,1.247l-4.475-9.6
	l-9.905,4.618l4.476,9.599l-2.642,1.232l-9.549-20.475L484.025,96.145z"/>
<path fill="#282D74" d="M520.867,103.224c-0.526,0.69-1.835,1.929-3.81,2.851c-4.435,2.068-8.737,0.376-10.836-4.12
	c-2.109-4.527-0.539-9.252,4.261-11.491c1.579-0.736,3.16-0.993,4.06-0.968l0.356,2.348c-0.81-0.066-1.967,0.066-3.426,0.747
	c-3.373,1.572-4.033,4.914-2.603,7.981c1.588,3.402,4.752,4.479,7.667,3.119c1.52-0.708,2.338-1.57,2.942-2.259L520.867,103.224z"/>
</svg>
